<mxfile host="app.diagrams.net" modified="2024-09-04T23:01:20.435Z" agent="Mozilla/5.0 (Windows NT 10.0; Win64; x64) AppleWebKit/537.36 (KHTML, like Gecko) Chrome/127.0.0.0 Safari/537.36" version="24.6.3" etag="_566_vyjNVtriMevQ8i7" type="github">
  <diagram name="Page-1" id="kNMNTD6ROIOEduc8B76b">
    <mxGraphModel>
      <root>
        <mxCell id="0" />
        <mxCell id="1" parent="0" />
      </root>
    </mxGraphModel>
  </diagram>
</mxfile>
